<?xml version="1.0" encoding="UTF-8"?>
<svg version="1.1" xmlns="http://www.w3.org/2000/svg" width="542" height="460">
<path d="M0 0 C13.38790025 14.10459727 23.28035293 30.59065842 30.9375 48.375 C33.03419955 46.27830045 33.80515638 44.72784944 35.00390625 42.04296875 C39.8530753 31.39538987 44.73359356 21.65352968 51.9375 12.375 C53.03191406 10.94994141 53.03191406 10.94994141 54.1484375 9.49609375 C71.02991772 -11.79826463 93.2730258 -27.72298301 120.6875 -31.375 C122.10248196 -31.48323556 123.51961474 -31.56592145 124.9375 -31.625 C125.7728125 -31.66496094 126.608125 -31.70492187 127.46875 -31.74609375 C150.25777492 -32.30272223 171.97111083 -23.58551065 188.9375 -8.625 C189.79472656 -7.92246094 190.65195312 -7.21992187 191.53515625 -6.49609375 C219.61607359 17.38278704 233.7039845 55.09156888 239.46994305 90.5250206 C239.77971368 92.41321824 240.10634152 94.29873341 240.45038319 96.18098831 C242.2892229 107.21373965 242.21249689 118.12072783 242.18041992 129.27636719 C242.18149475 131.45922401 242.1834364 133.64208054 242.18617249 135.82493591 C242.19099081 141.71511491 242.18340362 147.60521733 242.17321944 153.49538708 C242.1643915 159.67663158 242.16619729 165.85787401 242.1665802 172.03912354 C242.16564584 182.41200023 242.15699147 192.78484754 242.14331055 203.15771484 C242.12757092 215.13545607 242.12231316 227.11314273 242.1230461 239.09089351 C242.1237224 251.87094984 242.11677859 264.65099387 242.1075995 277.43104649 C242.10547244 281.10300557 242.10475891 284.77496266 242.10436058 288.4469223 C242.10335333 294.22212961 242.09722554 299.99731016 242.08719444 305.77250862 C242.0842834 307.88721871 242.08304124 310.00193189 242.08362198 312.11664391 C242.08411596 315.0113641 242.07842506 317.90601037 242.07121277 320.80072021 C242.07276137 321.62972359 242.07430997 322.45872697 242.0759055 323.31285167 C242.05216208 329.11588555 241.52145306 334.5354694 240.9375 340.375 C223.7775 340.375 206.6175 340.375 188.9375 340.375 C188.9375 287.905 188.9375 235.435 188.9375 181.375 C148.0175 181.375 107.0975 181.375 64.9375 181.375 C64.9375 233.845 64.9375 286.315 64.9375 340.375 C46.4575 340.375 27.9775 340.375 8.9375 340.375 C8.9375 323.545 8.9375 306.715 8.9375 289.375 C-22.0825 289.375 -53.1025 289.375 -85.0625 289.375 C-85.083125 280.320625 -85.10375 271.26625 -85.125 261.9375 C-85.134104 259.07521729 -85.14320801 256.21293457 -85.15258789 253.26391602 C-85.15550682 251.01057991 -85.15805543 248.75724327 -85.16015625 246.50390625 C-85.16527222 245.32147339 -85.17038818 244.13904053 -85.17565918 242.92077637 C-85.17584045 241.24598206 -85.17584045 241.24598206 -85.17602539 239.53735352 C-85.178246 238.56250504 -85.18046661 237.58765656 -85.18275452 236.58326721 C-85.0625 234.375 -85.0625 234.375 -84.0625 233.375 C-81.17106849 233.27976095 -78.30357936 233.24946973 -75.41186523 233.26147461 C-74.0510231 233.26125557 -74.0510231 233.26125557 -72.66268921 233.2610321 C-69.64880015 233.26173159 -66.63497207 233.26952566 -63.62109375 233.27734375 C-61.53744033 233.2792078 -59.45378646 233.28063176 -57.37013245 233.28163147 C-51.87426554 233.28545766 -46.37842487 233.2952888 -40.88256836 233.30633545 C-34.29470614 233.31834148 -27.70683517 233.32295133 -21.11896515 233.32878876 C-11.10012516 233.33850051 -1.0813428 233.35765636 8.9375 233.375 C8.9375 216.215 8.9375 199.055 8.9375 181.375 C3.00531494 181.34994385 -2.92687012 181.3248877 -9.03881836 181.29907227 C-28.58468946 181.21579445 -48.13053337 181.12713434 -67.67636776 181.03566074 C-79.53317704 180.98030409 -91.38998933 180.92681815 -103.24682617 180.87768555 C-113.57722051 180.83487356 -123.90759248 180.78860323 -134.23795229 180.73812145 C-139.71141745 180.71149638 -145.18487809 180.6866428 -150.65836906 180.66592598 C-155.80384273 180.64639616 -160.94927372 180.62226357 -166.0947094 180.59450912 C-167.98903633 180.58511925 -169.88337266 180.577451 -171.77771378 180.57158089 C-174.35229902 180.56335245 -176.92677974 180.5490853 -179.50132751 180.53321838 C-180.26104054 180.53224028 -181.02075356 180.53126217 -181.80348819 180.53025442 C-186.94837879 180.48912121 -186.94837879 180.48912121 -188.0625 179.375 C-188.16707485 177.46155356 -188.2010571 175.54421991 -188.20776367 173.62792969 C-188.21414352 172.39443787 -188.22052338 171.16094604 -188.22709656 169.89007568 C-188.22862831 168.52567585 -188.22974062 167.1612755 -188.23046875 165.796875 C-188.2336858 164.39129605 -188.23705021 162.98571743 -188.24055481 161.58013916 C-188.24656495 158.61412791 -188.2483936 155.64814582 -188.24780273 152.68212891 C-188.24772248 149.67978762 -188.25449408 146.67760215 -188.26831055 143.67529297 C-188.40848981 112.75879721 -186.3652212 83.77447996 -176.0625 54.375 C-175.83868652 53.72225098 -175.61487305 53.06950195 -175.38427734 52.39697266 C-164.27389607 20.49300253 -140.71984821 -7.76489023 -110.43701172 -22.87304688 C-71.47851853 -41.09511894 -30.22683244 -28.31776934 0 0 Z M87.9375 55.375 C75.66226343 69.98036954 70.63534477 86.69870749 68.9375 105.375 C126.8525 105.87 126.8525 105.87 185.9375 106.375 C185.9375 86.50459731 178.65827153 66.88843622 164.625 52.5625 C153.92168623 42.31185025 140.48866127 35.91266899 125.48046875 36.1640625 C110.45141049 37.41071249 98.12029232 44.53056824 87.9375 55.375 Z M-97.640625 56.48828125 C-108.87632096 69.88050595 -115.0625 88.01972042 -115.0625 105.375 C-81.4025 105.375 -47.7425 105.375 -13.0625 105.375 C-14.8289297 82.41141384 -22.03966942 64.0221135 -39.1953125 48.4375 C-58.73071308 32.61936188 -81.61180856 39.83722815 -97.640625 56.48828125 Z " fill="#42A5F4" transform="translate(247.0625,68.625)"/>
<path d="M0 0 C7.38728102 -0.02526692 14.77455098 -0.0428316 22.16186523 -0.05493164 C24.67716895 -0.05997363 27.19246972 -0.06680703 29.70776367 -0.07543945 C33.31429775 -0.08751094 36.92079323 -0.09322949 40.52734375 -0.09765625 C42.22575661 -0.10539818 42.22575661 -0.10539818 43.95848083 -0.11329651 C45.51998619 -0.11340981 45.51998619 -0.11340981 47.11303711 -0.11352539 C48.03459091 -0.115746 48.95614471 -0.11796661 49.90562439 -0.12025452 C52 0 52 0 53 1 C53.09547074 3.08842251 53.11883589 5.1801515 53.11523438 7.27075195 C53.1152092 7.93072111 53.11518402 8.59069027 53.11515808 9.27065849 C53.11331805 11.48907637 53.10373943 13.70738605 53.09375 15.92578125 C53.089956 17.49961812 53.08633821 19.07345543 53.08288574 20.64729309 C53.02962075 38.92872302 52.7852397 57.20861228 52.53643799 75.48822021 C52.47441749 80.08261943 52.41508014 84.67705338 52.35546875 89.27148438 C52.23949874 98.18102415 52.12073079 107.09052347 52 116 C45.0765867 116.02531927 38.15318531 116.04285389 31.22973633 116.05493164 C28.873612 116.05996575 26.5174908 116.06679346 24.16137695 116.07543945 C20.7781497 116.0875453 17.39496368 116.09323749 14.01171875 116.09765625 C12.42722176 116.10539818 12.42722176 116.10539818 10.81071472 116.11329651 C9.82992447 116.11337204 8.84913422 116.11344757 7.83862305 116.11352539 C6.54289619 116.11685631 6.54289619 116.11685631 5.22099304 116.12025452 C3 116 3 116 0 115 C-0.96164671 112.11505987 -1.11243264 110.37803838 -1.08229065 107.38728333 C-1.07525116 106.44077408 -1.06821167 105.49426483 -1.06095886 104.51907349 C-1.04801285 103.4825766 -1.03506683 102.44607971 -1.02172852 101.37817383 C-1.01212097 100.28533585 -1.00251343 99.19249786 -0.99261475 98.06654358 C-0.95957764 94.44664156 -0.91926308 90.82685846 -0.87890625 87.20703125 C-0.85460975 84.70025555 -0.83076596 82.19347543 -0.80735779 79.68669128 C-0.75090137 73.75811572 -0.68987177 67.82959835 -0.62663645 61.90109223 C-0.5478609 54.48944511 -0.47616804 47.07773236 -0.40429688 39.66601562 C-0.2752242 26.44394971 -0.13983804 13.22195621 0 0 Z " fill="#43A4F3" transform="translate(60,294)"/>
<path d="M0 0 C0.33 0 0.66 0 1 0 C1 25.08 1 50.16 1 76 C4.07090882 77.02363627 6.19222257 77.13698922 9.40995789 77.15821838 C11.09476761 77.17290161 11.09476761 77.17290161 12.81361389 77.18788147 C14.04647629 77.19363693 15.27933868 77.1993924 16.54956055 77.20532227 C18.49605499 77.22017166 18.49605499 77.22017166 20.48187256 77.23532104 C24.04147902 77.26236576 27.60109873 77.28337766 31.1607511 77.30332303 C34.88037009 77.32518525 38.59994825 77.35257279 42.3195343 77.37937927 C49.36364795 77.42930296 56.40778427 77.474243 63.45194227 77.51740164 C71.47123321 77.56677677 79.49048319 77.62169388 87.50973451 77.67708123 C104.00645191 77.79089631 120.50320686 77.89773639 137 78 C137 78.33 137 78.66 137 79 C119.1546915 79.02332826 101.30938694 79.04097882 83.46406651 79.05181217 C75.17875726 79.05697528 66.89345747 79.06401827 58.6081543 79.07543945 C51.38930392 79.08538583 44.17046039 79.09185332 36.95160335 79.09408849 C33.12691745 79.09539568 29.30225113 79.09848203 25.47757149 79.10573006 C21.88174213 79.11248954 18.28594054 79.11461711 14.69010544 79.11310768 C12.73293963 79.11351636 10.77577688 79.11891193 8.81861877 79.12442017 C7.08744812 79.12235817 7.08744812 79.12235817 5.32130432 79.12025452 C4.311941 79.12117631 3.30257769 79.1220981 2.2626276 79.12304783 C0 79 0 79 -1 78 C-1.0993331 76.04403787 -1.12799493 74.08445887 -1.12939453 72.12597656 C-1.13254669 70.86666321 -1.13569885 69.60734985 -1.13894653 68.30987549 C-1.13715444 66.92012498 -1.13510292 65.53037478 -1.1328125 64.140625 C-1.13348638 62.71588118 -1.13445712 61.29113747 -1.13571167 59.86639404 C-1.13719038 56.86681025 -1.13503239 53.86725613 -1.13037109 50.86767578 C-1.12473543 47.05867202 -1.12791196 43.24973969 -1.13394356 39.44073868 C-1.13759775 36.48925258 -1.13638751 33.53778273 -1.13381577 30.58629608 C-1.1331566 29.18475079 -1.13393886 27.78320393 -1.13629532 26.38166046 C-1.14787799 17.53839625 -0.8195223 8.80644757 0 0 Z " fill="#5EA0D1" transform="translate(60,170)"/>
<path d="M0 0 C-2.76223278 2.76223278 -5.20706617 2.57856291 -9 3 C-9 2.34 -9 1.68 -9 1 C-10.98 1 -12.96 1 -15 1 C-15 1.66 -15 2.32 -15 3 C-17.31 3 -19.62 3 -22 3 C-22.33 2.01 -22.66 1.02 -23 0 C-21.68 -0.99 -20.36 -1.98 -19 -3 C-27.91 -3.33 -36.82 -3.66 -46 -4 C-46 -4.33 -46 -4.66 -46 -5 C-29.80753751 -7.12360164 -15.47815518 -5.21849422 0 0 Z " fill="#4DA5E9" transform="translate(409,43)"/>
<path d="M0 0 C0.33 0 0.66 0 1 0 C5.36675332 20.74207829 4.28483161 41.92684311 4 63 C1.96181189 59.94271783 1.74340713 59.25909599 1.68115234 55.80395508 C1.66128265 54.96331009 1.64141296 54.1226651 1.62094116 53.25654602 C1.60938995 52.35333115 1.59783875 51.45011627 1.5859375 50.51953125 C1.56657135 49.59154221 1.5472052 48.66355316 1.5272522 47.70744324 C1.46745756 44.74255575 1.42107145 41.77762943 1.375 38.8125 C1.33682012 36.80271741 1.29776838 34.79295119 1.2578125 32.78320312 C1.16175607 27.85560158 1.07772451 22.92792342 1 18 C-0.32 18.33 -1.64 18.66 -3 19 C-3.33 17.35 -3.66 15.7 -4 14 C-3.01 14 -2.02 14 -1 14 C-0.67 14.33 -0.34 14.66 0 15 C0 10.05 0 5.1 0 0 Z " fill="#63A7DD" transform="translate(485,155)"/>
<path d="M0 0 C1.07310858 3.27185553 0.89263102 5.42947592 0.0625 8.75 C-0.13214844 9.54921875 -0.32679687 10.3484375 -0.52734375 11.171875 C-0.68332031 11.77515625 -0.83929688 12.3784375 -1 13 C-1.66 13 -2.32 13 -3 13 C-2.938125 14.1446875 -2.938125 14.1446875 -2.875 15.3125 C-3 18 -3 18 -5 21 C-5.56889658 23.1961265 -6.0610328 25.41253287 -6.5078125 27.63671875 C-6.63815887 28.27615921 -6.76850525 28.91559967 -6.90280151 29.57441711 C-7.31644259 31.61090803 -7.72083034 33.64911046 -8.125 35.6875 C-8.40433916 37.07108659 -8.68428018 38.45455181 -8.96484375 39.83789062 C-9.65021081 43.22388156 -10.32729309 46.61146833 -11 50 C-11.33 50 -11.66 50 -12 50 C-11.62953522 33.73322842 -7.30247392 14.60494784 0 0 Z " fill="#5EA1DC" transform="translate(73,118)"/>
<path d="M0 0 C0.66 0.33 1.32 0.66 2 1 C1.67 2.32 1.34 3.64 1 5 C1.99 5.33 2.98 5.66 4 6 C3.67 6.99 3.34 7.98 3 9 C1.68 9 0.36 9 -1 9 C-1.66 8.01 -2.32 7.02 -3 6 C-4.6396875 6.7425 -4.6396875 6.7425 -6.3125 7.5 C-10 9 -10 9 -13 9 C-13.66 10.32 -14.32 11.64 -15 13 C-16.32 12.34 -17.64 11.68 -19 11 C-13.02712159 6.80167242 -6.86082625 2.60685459 0 0 Z " fill="#4FA2EC" transform="translate(139,45)"/>
<path d="M0 0 C0.53625 0.226875 1.0725 0.45375 1.625 0.6875 C1.955 0.3575 2.285 0.0275 2.625 -0.3125 C4.30042976 -0.02645102 5.96885343 0.30531233 7.625 0.6875 C4.9887791 2.4449806 3.0616603 3.29229658 0.125 4.3125 C-5.27335076 6.40039154 -9.5497058 9.47750913 -14.125 12.98046875 C-16.375 14.6875 -16.375 14.6875 -18.375 15.6875 C-18.045 14.0375 -17.715 12.3875 -17.375 10.6875 C-16.715 10.6875 -16.055 10.6875 -15.375 10.6875 C-15.375 10.0275 -15.375 9.3675 -15.375 8.6875 C-13.395 8.3575 -11.415 8.0275 -9.375 7.6875 C-9.375 6.3675 -9.375 5.0475 -9.375 3.6875 C-2.95227873 -0.38845773 -2.95227873 -0.38845773 0 0 Z " fill="#4DA3EB" transform="translate(356.375,105.3125)"/>
<path d="M0 0 C0 0.66 0 1.32 0 2 C-0.99 2.66 -1.98 3.32 -3 4 C-3.33 4.99 -3.66 5.98 -4 7 C-8.33333333 7 -12.66666667 7 -17 7 C-17.33 7.66 -17.66 8.32 -18 9 C-18.66 7.68 -19.32 6.36 -20 5 C-17.41877492 4.15960114 -14.83536099 3.32749444 -12.25 2.5 C-11.15558594 2.14228516 -11.15558594 2.14228516 -10.0390625 1.77734375 C-9.33007812 1.55175781 -8.62109375 1.32617188 -7.890625 1.09375 C-7.24125977 0.88427734 -6.59189453 0.67480469 -5.92285156 0.45898438 C-4 0 -4 0 0 0 Z " fill="#4EA2E9" transform="translate(363,39)"/>
<path d="M0 0 C-4.66666667 4.66666667 -9.33333333 9.33333333 -14 14 C-14.33 13.01 -14.66 12.02 -15 11 C-14.34 11 -13.68 11 -13 11 C-13.268125 10.278125 -13.53625 9.55625 -13.8125 8.8125 C-14 6 -14 6 -11.6875 3.25 C-7.56178927 -0.2040834 -5.33817612 -0.09885511 0 0 Z " fill="#44A5EA" transform="translate(162,114)"/>
<path d="M0 0 C10.01834862 3.01834862 10.01834862 3.01834862 13 6 C13.33 6.99 13.66 7.98 14 9 C15.29355827 10.37195574 16.62298702 11.71182656 18 13 C17.34 14.32 16.68 15.64 16 17 C15.43152344 16.34773438 14.86304688 15.69546875 14.27734375 15.0234375 C9.77264846 9.92463381 5.23137129 5.34092511 0 1 C0 0.67 0 0.34 0 0 Z " fill="#4BA1E4" transform="translate(402,113)"/>
<path d="M0 0 C4.01571172 3.69868185 6.72213078 7.43320066 9.375 12.1875 C9.74238281 12.81591797 10.10976563 13.44433594 10.48828125 14.09179688 C11.39457946 15.69064372 12.20593529 17.34254747 13 19 C12 21 12 21 9 23 C9.33 21.02 9.66 19.04 10 17 C9.34 17 8.68 17 8 17 C7.67 15.02 7.34 13.04 7 11 C6.01 11 5.02 11 4 11 C3.67 10.01 3.34 9.02 3 8 C2.01 7.34 1.02 6.68 0 6 C-0.1875 2.875 -0.1875 2.875 0 0 Z " fill="#52A1E3" transform="translate(259,85)"/>
<path d="M0 0 C0.5625 1.9375 0.5625 1.9375 1 4 C0.67 4.33 0.34 4.66 0 5 C-0.13053673 6.45620979 -0.22983035 7.91529026 -0.3125 9.375 C-0.73491356 13.75148146 -0.73491356 13.75148146 -3 15.875 C-3.99 16.431875 -3.99 16.431875 -5 17 C-5.33 17.99 -5.66 18.98 -6 20 C-6.99 20 -7.98 20 -9 20 C-6.86233829 12.755702 -3.77315981 6.53281715 0 0 Z " fill="#55A3E6" transform="translate(83,97)"/>
<path d="M0 0 C0 0.33 0 0.66 0 1 C-0.81984375 1.12117188 -1.6396875 1.24234375 -2.484375 1.3671875 C-3.56203125 1.53476562 -4.6396875 1.70234375 -5.75 1.875 C-7.35101563 2.11863281 -7.35101563 2.11863281 -8.984375 2.3671875 C-11.89634946 2.83511149 -11.89634946 2.83511149 -13.90625 4 C-17.04130767 5.49734098 -20.33720739 5.73146437 -23.75 6.125 C-24.44738281 6.21136719 -25.14476562 6.29773437 -25.86328125 6.38671875 C-27.57472332 6.59771846 -29.28726629 6.79975501 -31 7 C-27.92452719 3.92452719 -24.13851581 3.45350327 -20 2.375 C-19.14237061 2.14917236 -18.28474121 1.92334473 -17.40112305 1.69067383 C-11.44737888 0.19419981 -6.15558197 -0.5045559 0 0 Z " fill="#5CA1E3" transform="translate(172,38)"/>
<path d="M0 0 C1.74032678 3.48065356 0.74013064 7.27952188 0 11 C-1.25 13.5625 -1.25 13.5625 -3 15 C-5.6875 15.25 -5.6875 15.25 -8 15 C-6.51194289 9.19657726 -3.40902445 4.82409121 0 0 Z " fill="#48A3EA" transform="translate(295,87)"/>
<path d="M0 0 C2.70451512 4.05677268 3.79111458 8.29492916 5.1875 12.9375 C5.61579102 14.2977832 5.61579102 14.2977832 6.05273438 15.68554688 C6.31763672 16.56146484 6.58253906 17.43738281 6.85546875 18.33984375 C7.09934326 19.13769287 7.34321777 19.93554199 7.59448242 20.75756836 C8.03454734 23.19103991 7.77739889 24.67577323 7 27 C6.67 27 6.34 27 6 27 C5.34 22.71 4.68 18.42 4 14 C3.34 14 2.68 14 2 14 C2 12.02 2 10.04 2 8 C0.68 8.33 -0.64 8.66 -2 9 C-2 8.01 -2 7.02 -2 6 C-1.34 6 -0.68 6 0 6 C0 4.02 0 2.04 0 0 Z " fill="#59A1DE" transform="translate(475,118)"/>
<path d="M0 0 C1.4540625 0.0309375 1.4540625 0.0309375 2.9375 0.0625 C2.9375 0.7225 2.9375 1.3825 2.9375 2.0625 C1.9475 2.5575 1.9475 2.5575 0.9375 3.0625 C1.2675 4.7125 1.5975 6.3625 1.9375 8.0625 C-5.5625 5.0625 -5.5625 5.0625 -13.0625 2.0625 C-13.0625 1.7325 -13.0625 1.4025 -13.0625 1.0625 C-12.42441406 1.07410156 -11.78632813 1.08570312 -11.12890625 1.09765625 C-10.30261719 1.10667969 -9.47632813 1.11570312 -8.625 1.125 C-7.38943359 1.14240234 -7.38943359 1.14240234 -6.12890625 1.16015625 C-3.22115264 1.02273878 -3.2777182 0.06689221 0 0 Z " fill="#51A2E7" transform="translate(205.0625,107.9375)"/>
<path d="M0 0 C6.57815438 3.04644035 12.36986818 6.42355207 18 11 C14.91190305 12.76462683 13.76687864 13 10 13 C10.33 11.35 10.66 9.7 11 8 C10.34 8 9.68 8 9 8 C9 7.34 9 6.68 9 6 C6.03 5.67 3.06 5.34 0 5 C0 3.35 0 1.7 0 0 Z " fill="#54A2E3" transform="translate(416,47)"/>
<path d="M0 0 C0.66 0 1.32 0 2 0 C2.33 2.97 2.66 5.94 3 9 C3.66 9 4.32 9 5 9 C5.12375 9.78375 5.2475 10.5675 5.375 11.375 C5.79117993 14.14057822 5.79117993 14.14057822 8 16 C7.67 16.33 7.34 16.66 7 17 C6.76712992 18.68183948 6.58735834 20.3712416 6.4375 22.0625 C6.31181641 23.44115234 6.31181641 23.44115234 6.18359375 24.84765625 C6.12300781 25.55792969 6.06242188 26.26820313 6 27 C5.67 27 5.34 27 5 27 C4.80664062 25.88882813 4.61328125 24.77765625 4.4140625 23.6328125 C3.03384533 15.73584005 1.63909202 7.84835828 0 0 Z " fill="#55A3E2" transform="translate(229,147)"/>
<path d="M0 0 C0 3.12900213 -0.42451317 4.37418862 -2 7 C-2.99 7.495 -2.99 7.495 -4 8 C-4 8.66 -4 9.32 -4 10 C-5.175625 10.680625 -5.175625 10.680625 -6.375 11.375 C-9.1235949 13.07651113 -9.87921032 14.04519084 -11 17 C-11.66 16.67 -12.32 16.34 -13 16 C-11.43636055 12.34584258 -9.17824958 9.7880312 -6.5 6.875 C-5.7059375 6.00617188 -4.911875 5.13734375 -4.09375 4.2421875 C-2.75256247 2.80591578 -1.38954317 1.38954317 0 0 Z " fill="#54A1E0" transform="translate(106,68)"/>
<path d="M0 0 C0.94875 0.04125 1.8975 0.0825 2.875 0.125 C2.545 3.425 2.215 6.725 1.875 10.125 C1.215 9.795 0.555 9.465 -0.125 9.125 C-0.125 7.475 -0.125 5.825 -0.125 4.125 C-1.775 4.455 -3.425 4.785 -5.125 5.125 C-5.125 0.85616396 -4.22482433 0.16899297 0 0 Z " fill="#4CA4E6" transform="translate(314.125,163.875)"/>
<path d="M0 0 C4.95258714 3.77339973 8.43679155 7.90789714 12 13 C11.67 13.66 11.34 14.32 11 15 C10.34 14.67 9.68 14.34 9 14 C8.67 14.66 8.34 15.32 8 16 C7.67 15.01 7.34 14.02 7 13 C6.01 12.67 5.02 12.34 4 12 C4.0825 11.0925 4.165 10.185 4.25 9.25 C3.94651946 5.30475293 2.89074879 4.52940519 0 2 C0 1.34 0 0.68 0 0 Z " fill="#50A0E2" transform="translate(446,71)"/>
<path d="M0 0 C0.33 0 0.66 0 1 0 C1.66755991 3.92191445 2.11976413 7.77129411 2.25 11.75 C2.27578125 12.48734375 2.3015625 13.2246875 2.328125 13.984375 C1.90918372 16.55787141 1.04368617 17.43251255 -1 19 C-1.66 19 -2.32 19 -3 19 C-3.33 17.35 -3.66 15.7 -4 14 C-3.01 14 -2.02 14 -1 14 C-0.67 14.33 -0.34 14.66 0 15 C0 10.05 0 5.1 0 0 Z " fill="#51A1E4" transform="translate(485,155)"/>
<path d="M0 0 C1.27310312 0.93441535 2.543388 1.87267111 3.8125 2.8125 C4.52019531 3.33457031 5.22789062 3.85664062 5.95703125 4.39453125 C7.78531393 5.83128877 9.39896688 7.31815763 11 9 C10.67 9.66 10.34 10.32 10 11 C8.02 11 6.04 11 4 11 C4.66 9.35 5.32 7.7 6 6 C4.35 6.33 2.7 6.66 1 7 C0.67 4.69 0.34 2.38 0 0 Z " fill="#509EE5" transform="translate(434,59)"/>
<path d="M0 0 C0.66 0.33 1.32 0.66 2 1 C-0.3125 3.5 -0.3125 3.5 -3 6 C-3.99 6 -4.98 6 -6 6 C-6.66 7.32 -7.32 8.64 -8 10 C-9.32 9.34 -10.64 8.68 -12 8 C-8 5.33333333 -4 2.66666667 0 0 Z " fill="#56A2E2" transform="translate(132,48)"/>
<path d="M0 0 C0 3.88091967 -1.65317733 6.39673296 -3.5 9.6875 C-3.83386719 10.29400391 -4.16773438 10.90050781 -4.51171875 11.52539062 C-5.335537 13.02003231 -6.16703451 14.51043671 -7 16 C-8.0440553 12.31791183 -8.05588692 9.73621526 -7 6 C-5.125 4.875 -5.125 4.875 -3 4 C-1.26574227 1.96682993 -1.26574227 1.96682993 0 0 Z " fill="#51A0DF" transform="translate(146,128)"/>
<path d="M0 0 C0.33 0.66 0.66 1.32 1 2 C1.99 2.33 2.98 2.66 4 3 C2.20966193 4.31431172 0.41768797 5.6263953 -1.375 6.9375 C-2.37273437 7.66839844 -3.37046875 8.39929688 -4.3984375 9.15234375 C-7 11 -7 11 -9 12 C-8.67 10.35 -8.34 8.7 -8 7 C-7.34 7 -6.68 7 -6 7 C-6 6.34 -6 5.68 -6 5 C-4.02 4.67 -2.04 4.34 0 4 C0 2.68 0 1.36 0 0 Z " fill="#52A1E1" transform="translate(347,109)"/>
<path d="M0 0 C0.66 1.32 1.32 2.64 2 4 C1.01 4.33 0.02 4.66 -1 5 C-1.144375 5.7425 -1.28875 6.485 -1.4375 7.25 C-1.90187492 9.52027739 -2.41863569 11.75759479 -3 14 C-3.66 14 -4.32 14 -5 14 C-5.33 15.32 -5.66 16.64 -6 18 C-6.66 17.67 -7.32 17.34 -8 17 C-5.36 11.39 -2.72 5.78 0 0 Z " fill="#58A1E0" transform="translate(286,102)"/>
<path d="M0 0 C1.07310858 3.27185553 0.89263102 5.42947592 0.0625 8.75 C-0.22947266 9.94882813 -0.22947266 9.94882813 -0.52734375 11.171875 C-0.68332031 11.77515625 -0.83929688 12.3784375 -1 13 C-1.66 13 -2.32 13 -3 13 C-3 14.65 -3 16.3 -3 18 C-3.33 18 -3.66 18 -4 18 C-4.51137226 11.09647445 -2.86964374 6.25172386 0 0 Z " fill="#55A2E3" transform="translate(73,118)"/>
<path d="M0 0 C2 2 2 2 2.3125 3.875 C2.86804232 6.27352893 2.86804232 6.27352893 5.5 7.9375 C8 10 8 10 8.8125 12.75 C8.874375 13.4925 8.93625 14.235 9 15 C4.66666667 10.66666667 0.33333333 6.33333333 -4 2 C-2.68 1.34 -1.36 0.68 0 0 Z " fill="#57A1DA" transform="translate(211,115)"/>
<path d="M0 0 C4.45242726 0.61095337 7.82007403 2.29915793 11.75 4.4375 C13.47476563 5.36369141 13.47476563 5.36369141 15.234375 6.30859375 C18 8 18 8 19 10 C12.25 8.25 12.25 8.25 10 6 C9.236875 5.71125 8.47375 5.4225 7.6875 5.125 C4.64354102 3.85078461 2.49454118 2.13817815 0 0 Z " fill="#5DA0DB" transform="translate(208,44)"/>
<path d="M0 0 C0.66 0.33 1.32 0.66 2 1 C0.75 2.5 0.75 2.5 -1 4 C-2.32 4 -3.64 4 -5 4 C-5 4.99 -5 5.98 -5 7 C-9.95 8.485 -9.95 8.485 -15 10 C-12.0761589 6.81980317 -9.16598831 4.74648691 -5.375 2.6875 C-4.41335938 2.15511719 -3.45171875 1.62273438 -2.4609375 1.07421875 C-1.64882813 0.71972656 -0.83671875 0.36523438 0 0 Z " fill="#5D9FDE" transform="translate(341,45)"/>
<path d="M0 0 C0.66 0 1.32 0 2 0 C5.91840013 3.91840013 7.9211941 8.61605281 9 14 C8.67 14.99 8.34 15.98 8 17 C4.04 8.585 4.04 8.585 0 0 Z " fill="#5CA1DF" transform="translate(220,130)"/>
<path d="M0 0 C0.99 0 1.98 0 3 0 C2.67 1.32 2.34 2.64 2 4 C0.68 4.33 -0.64 4.66 -2 5 C-2 5.99 -2 6.98 -2 8 C-3.65 8.66 -5.3 9.32 -7 10 C-6.02223933 8.51990357 -5.0427506 7.04094856 -4.0625 5.5625 C-3.51722656 4.73878906 -2.97195313 3.91507812 -2.41015625 3.06640625 C-1 1 -1 1 0 0 Z " fill="#52A3E5" transform="translate(303,76)"/>
<path d="M0 0 C3.59476701 3.49205938 6.92026191 7.04033675 10 11 C10 11.66 10 12.32 10 13 C8.68 12.34 7.36 11.68 6 11 C6 10.01 6 9.02 6 8 C5.01 8 4.02 8 3 8 C3 7.34 3 6.68 3 6 C2.34 6 1.68 6 1 6 C0.67 4.02 0.34 2.04 0 0 Z " fill="#58A1DE" transform="translate(249,72)"/>
<path d="M0 0 C2.71699395 2.71699395 3.85575444 4.78833733 4.3125 8.625 C4.209375 9.40875 4.10625 10.1925 4 11 C3.01 11.66 2.02 12.32 1 13 C0.67 8.71 0.34 4.42 0 0 Z " fill="#56A2DD" transform="translate(432,161)"/>
<path d="M0 0 C0.66 0.33 1.32 0.66 2 1 C1.43410156 1.45890625 0.86820313 1.9178125 0.28515625 2.390625 C-0.44832031 3.00421875 -1.18179688 3.6178125 -1.9375 4.25 C-2.66839844 4.85328125 -3.39929688 5.4565625 -4.15234375 6.078125 C-6.10326334 8.10741134 -6.61731779 9.254407 -7 12 C-8.32 11.34 -9.64 10.68 -11 10 C-3.70159453 2.51708428 -3.70159453 2.51708428 0 0 Z " fill="#57A3DE" transform="translate(118,57)"/>
<path d="M0 0 C4.08963819 2.28538605 7.46362104 4.95706926 11 8 C9.02 8.99 9.02 8.99 7 10 C7 9.01 7 8.02 7 7 C6.360625 6.896875 5.72125 6.79375 5.0625 6.6875 C4.381875 6.460625 3.70125 6.23375 3 6 C2.67 5.01 2.34 4.02 2 3 C1.34 2.67 0.68 2.34 0 2 C0 1.34 0 0.68 0 0 Z " fill="#57A2E1" transform="translate(233,58)"/>
<path d="M0 0 C0.99 0 1.98 0 3 0 C2.690625 0.598125 2.38125 1.19625 2.0625 1.8125 C0.89790296 4.08956772 0.89790296 4.08956772 0 7 C-2.0625 7.6875 -2.0625 7.6875 -4 8 C-4 6.68 -4 5.36 -4 4 C-3.01 3.67 -2.02 3.34 -1 3 C-0.67 2.01 -0.34 1.02 0 0 Z " fill="#34A6F7" transform="translate(136,128)"/>
<path d="M0 0 C2.31 0 4.62 0 7 0 C2.25 4.875 2.25 4.875 0 6 C0 4.02 0 2.04 0 0 Z " fill="#50A3E2" transform="translate(155,114)"/>
<path d="M0 0 C2.15377564 2.62198774 3.40072174 4.64404172 4 8 C2.68 8.33 1.36 8.66 0 9 C-1.125 3.375 -1.125 3.375 0 0 Z " fill="#50A0E7" transform="translate(272,106)"/>
<path d="M0 0 C0.66 1.32 1.32 2.64 2 4 C0.35 5.65 -1.3 7.3 -3 9 C-3.33 8.34 -3.66 7.68 -4 7 C-3.22265625 5.2734375 -3.22265625 5.2734375 -2.0625 3.375 C-1.381875 2.26125 -0.70125 1.1475 0 0 Z " fill="#51A0E1" transform="translate(291,93)"/>
<path d="M0 0 C4.571279 0.54855348 8.67435795 1.41744803 13 3 C13 3.33 13 3.66 13 4 C5.25 4.125 5.25 4.125 3 3 C3 2.34 3 1.68 3 1 C2.01 0.67 1.02 0.34 0 0 Z " fill="#5EA1DE" transform="translate(396,40)"/>
<path d="M0 0 C0.99 0 1.98 0 3 0 C4.4783226 2.95664519 4.06032783 5.74229737 4 9 C1.3144406 6.3144406 0.93950026 3.62378672 0 0 Z " fill="#5AA2DF" transform="translate(425,140)"/>
<path d="M0 0 C0.33 0.66 0.66 1.32 1 2 C0.34 2 -0.32 2 -1 2 C-0.34 3.65 0.32 5.3 1 7 C-1.86724686 6.42655063 -2.8614515 6.1385485 -5 4 C-3.35 2.68 -1.7 1.36 0 0 Z " fill="#51A3E5" transform="translate(325,55)"/>
<path d="M0 0 C1.32 1.65 2.64 3.3 4 5 C3.34 6.32 2.68 7.64 2 9 C1.87625 8.360625 1.7525 7.72125 1.625 7.0625 C1.315625 6.0415625 1.315625 6.0415625 1 5 C0.34 4.67 -0.32 4.34 -1 4 C-0.67 2.68 -0.34 1.36 0 0 Z " fill="#37A9F2" transform="translate(429,145)"/>
<path d="M0 0 C2.1519437 3.22791555 2.20086443 4.28400809 2 8 C0.68 8.33 -0.64 8.66 -2 9 C-2 8.01 -2 7.02 -2 6 C-1.34 6 -0.68 6 0 6 C0 4.02 0 2.04 0 0 Z " fill="#4FA2E8" transform="translate(475,118)"/>
<path d="M0 0 C0.66 0 1.32 0 2 0 C2 3 2 3 0.6875 4.6875 C-1 6 -1 6 -4 6 C-2.84826645 3.53199953 -1.95216435 1.95216435 0 0 Z " fill="#37A6FB" transform="translate(150,114)"/>
<path d="M0 0 C0.33 0.99 0.66 1.98 1 3 C-2 5 -2 5 -5 5 C-5 3.68 -5 2.36 -5 1 C-3.68 1.33 -2.36 1.66 -1 2 C-0.67 1.34 -0.34 0.68 0 0 Z " fill="#4CA3EF" transform="translate(437,241)"/>
<path d="M0 0 C0.99 0.33 1.98 0.66 3 1 C1.70700306 3.88437779 0.34058637 5.87219421 -2 8 C-1.33333333 5.33333333 -0.66666667 2.66666667 0 0 Z " fill="#5B9EDF" transform="translate(331,124)"/>
<path d="M0 0 C0.763125 0.309375 1.52625 0.61875 2.3125 0.9375 C4.18789677 1.67893593 6.08684652 2.36228217 8 3 C7.67 4.32 7.34 5.64 7 7 C5.83040013 6.02433888 4.66438823 5.044375 3.5 4.0625 C2.8503125 3.51722656 2.200625 2.97195312 1.53125 2.41015625 C1.0259375 1.94480469 0.520625 1.47945313 0 1 C0 0.67 0 0.34 0 0 Z " fill="#57A0DB" transform="translate(402,113)"/>
<path d="" fill="#FFFFFF" transform="translate(0,0)"/>
<path d="" fill="#FFFFFF" transform="translate(0,0)"/>
<path d="" fill="#FFFFFF" transform="translate(0,0)"/>
<path d="" fill="#FFFFFF" transform="translate(0,0)"/>
<path d="" fill="#FFFFFF" transform="translate(0,0)"/>
<path d="" fill="#FFFFFF" transform="translate(0,0)"/>
<path d="" fill="#FFFFFF" transform="translate(0,0)"/>
<path d="" fill="#FFFFFF" transform="translate(0,0)"/>
<path d="" fill="#FFFFFF" transform="translate(0,0)"/>
<path d="" fill="#FFFFFF" transform="translate(0,0)"/>
<path d="" fill="#FFFFFF" transform="translate(0,0)"/>
<path d="" fill="#FFFFFF" transform="translate(0,0)"/>
<path d="" fill="#FFFFFF" transform="translate(0,0)"/>
<path d="" fill="#FFFFFF" transform="translate(0,0)"/>
<path d="" fill="#FFFFFF" transform="translate(0,0)"/>
<path d="" fill="#FFFFFF" transform="translate(0,0)"/>
<path d="" fill="#FFFFFF" transform="translate(0,0)"/>
<path d="" fill="#FFFFFF" transform="translate(0,0)"/>
<path d="" fill="#FFFFFF" transform="translate(0,0)"/>
<path d="" fill="#FFFFFF" transform="translate(0,0)"/>
<path d="" fill="#FFFFFF" transform="translate(0,0)"/>
<path d="" fill="#FFFFFF" transform="translate(0,0)"/>
<path d="" fill="#FFFFFF" transform="translate(0,0)"/>
<path d="" fill="#FFFFFF" transform="translate(0,0)"/>
<path d="" fill="#FFFFFF" transform="translate(0,0)"/>
<path d="" fill="#FFFFFF" transform="translate(0,0)"/>
<path d="" fill="#FFFFFF" transform="translate(0,0)"/>
<path d="" fill="#FFFFFF" transform="translate(0,0)"/>
<path d="" fill="#FFFFFF" transform="translate(0,0)"/>
<path d="" fill="#FFFFFF" transform="translate(0,0)"/>
<path d="" fill="#FFFFFF" transform="translate(0,0)"/>
<path d="" fill="#FFFFFF" transform="translate(0,0)"/>
<path d="" fill="#FFFFFF" transform="translate(0,0)"/>
<path d="" fill="#FFFFFF" transform="translate(0,0)"/>
<path d="" fill="#FFFFFF" transform="translate(0,0)"/>
<path d="" fill="#FFFFFF" transform="translate(0,0)"/>
<path d="" fill="#FFFFFF" transform="translate(0,0)"/>
<path d="" fill="#FFFFFF" transform="translate(0,0)"/>
<path d="" fill="#FFFFFF" transform="translate(0,0)"/>
<path d="" fill="#FFFFFF" transform="translate(0,0)"/>
</svg>
